# xmcd
#
# Track frame offsets:
# 150
# 12522
# 23633
# 39258
# 49659
# 65014
# 73431
# 81350
# 93574
# 106430
# 117970
# 135638
# 146735
# 157763
#
# Disc length: 2217 seconds
#
#
# Revision: 0
# Processed by: cddbd v1.5.1PL2 Copyright (c) Steve Scherf et al.
# Submitted via: Nero 7, 0, 5, 4 
#
DISCID=c208a70e
DTITLE=The Boys From Indiana - Good Time Blues
DYEAR=2006
DGENRE=country
TTITLE0=Good Time Blues
TTITLE1=Headin' South
TTITLE2=Atlanta Is Burning
TTITLE3=How Will I Explain About You
TTITLE4=These Memories Of Mine
TTITLE5=My Night Of Howl
TTITLE6=Lady Of The Lake
TTITLE7=Feeling Blue
TTITLE8=The Sad Wind Sighs
TTITLE9=The Girl In The Blue Velvet Band
TTITLE10=Play Hank's Song Once Again
TTITLE11=My Red River Home
TTITLE12=You Can Mark It Down
TTITLE13=Little Community Church
EXTD=
EXTT0=
EXTT1=
EXTT2=
EXTT3=
EXTT4=
EXTT5=
EXTT6=
EXTT7=
EXTT8=
EXTT9=
EXTT10=
EXTT11=
EXTT12=
EXTT13=
PLAYORDER=
